<svg class="svg-icon" style="width: 1em;height: 1em;vertical-align: middle;fill: currentColor;overflow: hidden;" viewBox="0 0 1024 1024" version="1.1" xmlns="http://www.w3.org/2000/svg"><path d="M645.369 511.961c0.101-1.813-0.151-3.577-0.804-5.186-0.352-1.106-0.957-2.116-1.813-2.97l-241.005-241.009c-1.207-1.209-2.718-1.911-4.431-2.215-4.481-1.057-9.818 0.505-13.845 4.481-3.977 3.977-5.537 9.365-4.481 13.845 0.303 1.711 1.007 3.222 2.215 4.431l228.573 228.672-228.622 228.622c-1.207 1.207-1.911 2.718-2.215 4.431-1.057 4.481 0.502 9.817 4.481 13.845 3.975 3.977 9.365 5.539 13.845 4.481 1.711-0.303 3.222-1.007 4.431-2.215l240.957-240.957c0.804-0.804 1.359-1.711 1.762-2.769 0.757-1.612 1.057-3.526 0.955-5.488z" fill="#5D5D5D" /></svg>